<svg width="512" height="512" viewBox="0 0 512 512" fill="none" xmlns="http://www.w3.org/2000/svg">
<g id="011-return of investment 1">
<g id="dollar">
<g id="Group">
<path id="Vector" d="M316.79 279.549C316.79 305.168 297.29 326.737 271 332.793V355.28H241V332.793C214.71 326.737 195.21 305.168 195.21 279.549H225.21C225.21 293.336 239.02 304.56 256 304.56C272.98 304.56 286.79 293.337 286.79 279.549C286.79 265.762 272.98 254.538 256 254.538C222.48 254.538 195.21 229.896 195.21 199.608C195.21 173.989 214.71 152.42 241 146.364V123.877H271V146.364C297.29 152.42 316.79 173.989 316.79 199.608H286.79C286.79 185.811 272.98 174.597 256 174.597C239.02 174.597 225.21 185.81 225.21 199.608C225.21 213.395 239.02 224.609 256 224.609C289.52 224.609 316.79 249.261 316.79 279.549Z" fill="#00DC7B"/>
</g>
<path id="Vector_2" d="M316.79 279.549C316.79 305.168 297.29 326.737 271 332.793V355.28H256V304.56C272.98 304.56 286.79 293.337 286.79 279.549C286.79 265.762 272.98 254.538 256 254.538V224.609C289.52 224.609 316.79 249.261 316.79 279.549V279.549Z" fill="#00AA8E"/>
<path id="Vector_3" d="M256 174.597V123.877H271V146.364C297.29 152.42 316.79 173.989 316.79 199.608H286.79C286.79 185.811 272.98 174.597 256 174.597Z" fill="#00AA8E"/>
</g>
<g id="arrow">
<path id="Vector_4" d="M425.71 70.174C380.38 24.921 320.11 0 256 0C191.89 0 131.62 24.921 86.29 70.174C40.96 115.427 16 175.585 16 239.574C16 303.573 40.96 363.731 86.29 408.984C123.54 446.176 170.89 469.611 222.17 476.794L208.09 490.851L229.31 512L275.93 465.46L235.02 412.555L211.27 430.832L223.55 446.725C123.11 431.101 46 344.157 46 239.574C46 123.977 140.2 29.929 256 29.929C371.79 29.929 466 123.977 466 239.574C466 323.595 416.01 399.267 338.65 432.368L350.48 459.873C438.88 422.043 496 335.577 496 239.574C496 175.585 471.04 115.427 425.71 70.174V70.174Z" fill="#2AD7F5"/>
<path id="Vector_5" d="M496 239.574C496 335.577 438.88 422.043 350.48 459.873L338.65 432.368C416.01 399.266 466 323.595 466 239.574C466 123.977 371.79 29.929 256 29.929V0C320.11 0 380.38 24.921 425.71 70.174C471.04 115.427 496 175.585 496 239.574V239.574Z" fill="#3BA9FF"/>
</g>
</g>
</svg>
